# xmcd
#
# Track frame offsets:
#	150
#	16215
#	33000
#	40163
#	63039
#	75437
#	108175
#	134796
#
# Disc length: 1934 seconds
# Revision: 0
# Processed by: cddbd v1.5.2PL0 Copyright (c) Steve Scherf et al.
# Submitted via: dBpowerAMP V12.0
#
DISCID=55078c08
DTITLE=Roy Buchanan - Roy Buchanan
DYEAR=1972
DGENRE=Blues
TTITLE0=Sweet Dreams
TTITLE1=I Am a Lonesome Fugitive
TTITLE2=Cajun
TTITLE3=John's Blues
TTITLE4=Haunted House
TTITLE5=Pete's Blues
TTITLE6=The Messiah Will Come Again
TTITLE7=Hey, Good Lookin'
EXTD=
EXTT0=
EXTT1=
EXTT2=
EXTT3=
EXTT4=
EXTT5=
EXTT6=
EXTT7=
PLAYORDER=
